<svg width="260" height="260" viewBox="0 0 260 260" fill="none" xmlns="http://www.w3.org/2000/svg">
<rect width="260" height="260" fill="#00A987"/>
<path fill-rule="evenodd" clip-rule="evenodd" d="M52 129.549C52 108.811 69.108 92 90.2121 92C102.651 92 114.795 99.8208 121.384 107.681L150.191 142.132C154.866 147.718 163.082 152.415 169.788 152.415C182.64 152.415 193.058 142.177 193.058 129.549C193.058 116.92 182.64 106.683 169.788 106.683C163.088 106.683 154.823 111.423 150.139 117.028L145.079 123.079L135.512 111.393L138.592 107.71C145.185 99.8207 157.335 92 169.788 92C190.892 92 208 108.811 208 129.549C208 150.286 190.892 167.097 169.788 167.097C157.353 167.097 145.251 159.347 138.649 151.456L129.283 140.255V168H116.209V156.602C109.369 162.41 99.8948 167.097 90.2121 167.097C69.108 167.097 52 150.286 52 129.549ZM109.85 117.016L122.214 131.802H92.1521V144.649H107.406C102.635 149.063 95.8911 152.415 90.2121 152.415C77.3601 152.415 66.9421 142.177 66.9421 129.549C66.9421 116.92 77.3601 106.683 90.2121 106.683C96.8928 106.683 105.157 111.42 109.846 117.011L109.85 117.016Z" fill="white"/>
</svg>
